<svg height="512" viewBox="0 0 53 59" width="512" xmlns="http://www.w3.org/2000/svg"><g id="019---Lost-Property" transform="translate(0 -1)"><path id="Shape" d="m43 60c.5522847 0 1-.4477153 1-1v-3.907l6.924-37.355c.376-1.814-.706-3.738-2.419-3.738h-11.01c-1.723 0-2.789 1.925-2.421 3.727l6.926 37.366v3.907c0 .5522847.4477153 1 1 1z"/><path id="Shape" d="m53 8v-.794c.0439641-3.0660682-2.1815884-5.69420951-5.213-6.156-1.7134988-.22472632-3.4407636.29953889-4.740266 1.43878143-1.2995023 1.13924253-2.0452942 2.78304674-2.046734 4.51121857v4c0 .5522847.4477153 1 1 1h2c.5522847 0 1-.4477153 1-1v-3.878c-.0243255-1.00619097.6729469-1.88640274 1.658-2.093.5813369-.09912342 1.1768319.06270896 1.6280357.44243682.4512037.37972786.7123541.93883824.7139643 1.52856318v.878c-.0243255 1.00619097.6729469 1.88640274 1.658 2.093.5813369.0991234 1.1768319-.06270896 1.6280357-.44243682.4512037-.37972786.7123541-.93883824.7139643-1.52856318z"/><path id="Shape" d="m17 1c-7.7319865 0-14 6.2680135-14 14s6.2680135 14 14 14 14-6.2680135 14-14c0-3.7130309-1.4749958-7.27398564-4.1005051-9.89949494-2.6255093-2.62550929-6.186464-4.10050506-9.8994949-4.10050506zm0 25c-.5522847 0-1-.4477153-1-1s.4477153-1 1-1 1 .4477153 1 1-.4477153 1-1 1zm4.062-11.087c-.8254735.5905832-1.5495642 1.3112965-2.144 2.134-.657176 1.2088102-.9542317 2.5806105-.856 3.953 0 .5522847-.4477153 1-1 1s-1-.4477153-1-1c-.1095468-1.7315617.285774-3.4577034 1.138-4.969.6934043-1.0198824 1.5601822-1.9103521 2.561-2.631.7857952-.6888223 1.2371434-1.6825021 1.2388662-2.727465.0017228-1.04496279-.4463465-2.04012547-1.2298662-2.731535-1.4530973-1.1331067-3.4545662-1.25243117-5.032-.3-1.0548018.63883231-1.710272 1.77213965-1.738 3.005v.379c0 .5522847-.4477153 1-1 1s-1-.4477153-1-1v-.379c.0227602-1.91895715 1.0265732-3.69261161 2.66-4.7 2.3179222-1.41989716 5.2771412-1.23474603 7.4.463 1.2314742 1.06957413 1.9388655 2.62043494 1.9392491 4.2515442.0003836 1.6311092-.7062782 3.1823025-1.9372491 4.2524558z"/><path id="Shape" d="m21 42v3c-.7844641-.0026511-1.4803058.5030478-1.72 1.25-.134.322-.007-.523-1.25 10.38-.121937.5577799.0059245 1.1409941.3500321 1.5966002.3441076.4556062.8701063.7381176 1.4399679.7733998h16.36c.5698616-.0352822 1.0958603-.3177936 1.4399679-.7733998.3441076-.4556061.4719691-1.0388203.3500321-1.5966002-1.241-10.89-1.118-10.064-1.25-10.38-.2396942-.7469522-.9355359-1.2526511-1.72-1.25v-3c-.0000001-3.8659932-3.1340068-6.9999999-7-6.9999999s-6.9999999 3.1340067-7 6.9999999zm12 0v3h-10v-3c0-2.7614237 2.2385763-5 5-5s5 2.2385763 5 5z"/><path id="Shape" d="m0 45v11c0 1.6568542 1.34314575 3 3 3h13.52c-.4446325-.8036938-.6099409-1.7322344-.47-2.64l1.15-10.06c.1769727-1.1274847.8334379-2.1231236 1.8-2.73v-4.57c0-3.8659932-3.1340068-7-7-7-3.86599325 0-7 3.1340068-7 7v3h-2c-1.65685425 0-3 1.3431458-3 3zm7-6c0-2.7614237 2.23857625-5 5-5 2.7614237 0 5 2.2385763 5 5v3h-10z"/></g></svg>